<svg xmlns="http://www.w3.org/2000/svg" version="1.1" xmlns:xlink="http://www.w3.org/1999/xlink" xmlns:svgjs="http://svgjs.com/svgjs" width="1440" height="250" preserveAspectRatio="none" viewBox="0 0 1440 250"><g mask="url(&quot;#SvgjsMask1020&quot;)" fill="none"><rect width="1440" height="250" x="0" y="0" fill="rgba(247, 14, 143, 1)"></rect><path d="M19 250L269 0L519.5 0L269.5 250z" fill="url(#SvgjsLinearGradient1021)"></path><path d="M246.60000000000002 250L496.6 0L697.6 0L447.6 250z" fill="url(#SvgjsLinearGradient1021)"></path><path d="M509.20000000000005 250L759.2 0L826.7 0L576.7 250z" fill="url(#SvgjsLinearGradient1021)"></path><path d="M733.8000000000001 250L983.8000000000001 0L1135.3000000000002 0L885.3000000000001 250z" fill="url(#SvgjsLinearGradient1021)"></path><path d="M1393 250L1143 0L934.5 0L1184.5 250z" fill="url(#SvgjsLinearGradient1022)"></path><path d="M1159.4 250L909.4000000000001 0L753.4000000000001 0L1003.4000000000001 250z" fill="url(#SvgjsLinearGradient1022)"></path><path d="M917.8 250L667.8 0L568.8 0L818.8 250z" fill="url(#SvgjsLinearGradient1022)"></path><path d="M705.1999999999999 250L455.19999999999993 0L357.69999999999993 0L607.6999999999999 250z" fill="url(#SvgjsLinearGradient1022)"></path><path d="M1246.5573231675173 250L1440 56.55732316751741L1440 250z" fill="url(#SvgjsLinearGradient1021)"></path><path d="M0 250L193.4426768324826 250L 0 56.55732316751741z" fill="url(#SvgjsLinearGradient1022)"></path></g><defs><mask id="SvgjsMask1020"><rect width="1440" height="250" fill="#ffffff"></rect></mask><linearGradient x1="0%" y1="100%" x2="100%" y2="0%" id="SvgjsLinearGradient1021"><stop stop-color="rgba(185, 15, 133, 0.47)" offset="0"></stop><stop stop-opacity="0" stop-color="rgba(185, 15, 133, 0.47)" offset="0.66"></stop></linearGradient><linearGradient x1="100%" y1="100%" x2="0%" y2="0%" id="SvgjsLinearGradient1022"><stop stop-color="rgba(185, 15, 133, 0.47)" offset="0"></stop><stop stop-opacity="0" stop-color="rgba(185, 15, 133, 0.47)" offset="0.66"></stop></linearGradient></defs></svg>